<svg id="Layer_5" enable-background="new 0 0 64 64" height="512" viewBox="0 0 64 64" width="512" xmlns="http://www.w3.org/2000/svg"><path d="m17.721 53-1.333 4h13.224l-1.333-4z"/><path d="m35 59h-24c-.551 0-1 .449-1 1v1h26v-1c0-.551-.449-1-1-1z"/><path d="m3 48c0 1.654 1.346 3 3 3h34c1.654 0 3-1.346 3-3v-3h-40zm23-1h2v2h-2zm-4 0h2v2h-2zm-4 0h2v2h-2z"/><path d="m28 25h-20c-.551 0-1 .449-1 1v12c0 .551.449 1 1 1h20c.551 0 1-.449 1-1v-12c0-.551-.449-1-1-1zm-13.293 10.293-1.414 1.414-4.707-4.707 4.707-4.707 1.414 1.414-3.293 3.293zm2.242 3.023-1.897-.633 4-12 1.897.633zm5.758-1.609-1.414-1.414 3.293-3.293-3.293-3.293 1.414-1.414 4.707 4.707z"/><path d="m40 21h-34c-1.654 0-3 1.346-3 3v19h40v-19c0-1.654-1.346-3-3-3zm-9 17c0 1.654-1.346 3-3 3h-20c-1.654 0-3-1.346-3-3v-12c0-1.654 1.346-3 3-3h20c1.654 0 3 1.346 3 3zm6 3h-2v-2h2zm4 0h-2v-2h2zm0-4h-8v-2h8zm0-4h-8v-2h8zm0-4h-8v-2h8zm0-4h-8v-2h8z"/><path d="m45 27h12v14h-12z"/><path d="m15 19h25c2.757 0 5 2.243 5 5v1h14v18h-14v2h15c.551 0 1-.449 1-1v-33h-46zm44 4h-12v-2h12zm0-4h-12v-2h12zm-38-6h38v2h-38zm-4 0h2v2h-2z"/><path d="m60 3h-44c-.551 0-1 .449-1 1v5h46v-5c0-.551-.449-1-1-1zm-41 4h-2v-2h2zm4 0h-2v-2h2zm4 0h-2v-2h2z"/></svg>