<svg id="Layer_5" enable-background="new 0 0 64 64" height="512" viewBox="0 0 64 64" width="512" xmlns="http://www.w3.org/2000/svg"><g><path d="m21.963 51c-.114 1.464-.634 2.845-1.492 4h15.06c-.858-1.155-1.378-2.536-1.492-4z"/><path d="m43 57h-30c-.552 0-1 .449-1 1v2c0 .551.448 1 1 1h30c.552 0 1-.449 1-1v-2c0-.551-.448-1-1-1z"/><path d="m5 41v-24c0-1.103.897-2 2-2h6c-1.302 0-2.402-.839-2.816-2h-4.184c-1.654 0-3 1.346-3 3v30c0 1.654 1.346 3 3 3h43v-6h-42c-1.103 0-2-.897-2-2zm10 4h2v2h-2zm-4 0h2v2h-2zm-2 2h-2v-2h2z"/><path d="m21 6c0-1.654-1.346-3-3-3s-3 1.346-3 3v3h6z"/><path d="m13 13h10c.552 0 1-.449 1-1s-.448-1-1-1h-10c-.552 0-1 .449-1 1s.448 1 1 1z"/><path d="m51 33h4v14h-4z"/><path d="m60.382 31-3.829-7.658c-.211-.422-.895-.422-1.105 0l-3.83 7.658z"/><path d="m21 19v-4h-6v12.764l2.447 4.894c.211.422.895.422 1.105 0l1.83-3.658h-3.382v-2h4v-2h-2v-2h2v-2h-4v-2z"/><path d="m51 56c0 2.757 2.243 5 5 5s5-2.243 5-5v-3h-10z"/><path d="m23 28.236-2.658 5.317c-.083.166-.196.306-.307.447h9.965c1.105 0 2 .895 2 2s-.895 2-2 2h-18c-1.105 0-2-.895-2-2s.895-2 2-2h3.965c-.112-.141-.224-.281-.307-.447l-2.658-5.317v-11.236h-6v24h42v-9-.236-14.764h-26zm20 10.764h-8v-2h8zm4 0h-2v-2h2zm0-4h-12v-2h12zm-15-15h14v10h-14z"/><path d="m57 33h4v14h-4z"/><path d="m51 49h10v2h-10z"/><path d="m51 27.764 2-4v-7.764c0-1.654-1.346-3-3-3h-24.184c-.414 1.161-1.514 2-2.816 2h26c1.103 0 2 .897 2 2z"/><path d="m42.553 22.105-3.553 1.777-3.553-1.777-.894 1.79 2.211 1.105-2.211 1.105.894 1.79 3.553-1.777 3.553 1.777.894-1.79-2.211-1.105 2.211-1.105z"/></g></svg>